<svg xmlns="http://www.w3.org/2000/svg" xmlns:xlink="http://www.w3.org/1999/xlink" width="160" zoomAndPan="magnify" viewBox="0 0 120 60" height="80" preserveAspectRatio="xMidYMid meet" version="1.0"><defs><g/></defs><g fill="#3884b6" fill-opacity="1"><g transform="translate(43.680657, 53.65003)"><g><path d="M 5.0625 0.203125 C 4.207031 0.203125 3.457031 -0.00390625 2.8125 -0.421875 C 2.164062 -0.835938 1.660156 -1.425781 1.296875 -2.1875 C 0.941406 -2.957031 0.765625 -3.859375 0.765625 -4.890625 C 0.765625 -5.941406 0.941406 -6.84375 1.296875 -7.59375 C 1.660156 -8.351562 2.164062 -8.9375 2.8125 -9.34375 C 3.457031 -9.757812 4.207031 -9.96875 5.0625 -9.96875 C 5.875 -9.96875 6.582031 -9.765625 7.1875 -9.359375 C 7.789062 -8.960938 8.195312 -8.441406 8.40625 -7.796875 L 8.1875 -7.796875 L 8.1875 -12.984375 C 8.1875 -13.398438 8.289062 -13.710938 8.5 -13.921875 C 8.71875 -14.140625 9.03125 -14.25 9.4375 -14.25 C 9.832031 -14.25 10.140625 -14.140625 10.359375 -13.921875 C 10.578125 -13.710938 10.6875 -13.398438 10.6875 -12.984375 L 10.6875 -1.125 C 10.6875 -0.707031 10.578125 -0.390625 10.359375 -0.171875 C 10.148438 0.046875 9.847656 0.15625 9.453125 0.15625 C 9.054688 0.15625 8.75 0.046875 8.53125 -0.171875 C 8.320312 -0.390625 8.21875 -0.707031 8.21875 -1.125 L 8.21875 -2.671875 L 8.4375 -2.078125 C 8.238281 -1.390625 7.832031 -0.835938 7.21875 -0.421875 C 6.601562 -0.00390625 5.882812 0.203125 5.0625 0.203125 Z M 5.75 -1.703125 C 6.25 -1.703125 6.679688 -1.820312 7.046875 -2.0625 C 7.421875 -2.300781 7.710938 -2.65625 7.921875 -3.125 C 8.128906 -3.601562 8.234375 -4.191406 8.234375 -4.890625 C 8.234375 -5.960938 8.003906 -6.757812 7.546875 -7.28125 C 7.097656 -7.8125 6.5 -8.078125 5.75 -8.078125 C 5.257812 -8.078125 4.828125 -7.957031 4.453125 -7.71875 C 4.078125 -7.488281 3.785156 -7.132812 3.578125 -6.65625 C 3.378906 -6.1875 3.28125 -5.597656 3.28125 -4.890625 C 3.28125 -3.835938 3.503906 -3.039062 3.953125 -2.5 C 4.410156 -1.96875 5.007812 -1.703125 5.75 -1.703125 Z M 5.75 -1.703125 "/></g></g></g><g fill="#3884b6" fill-opacity="1"><g transform="translate(55.66198, 53.65003)"><g><path d="M 5.75 0.203125 C 4.738281 0.203125 3.859375 -0.00390625 3.109375 -0.421875 C 2.367188 -0.835938 1.789062 -1.425781 1.375 -2.1875 C 0.96875 -2.957031 0.765625 -3.859375 0.765625 -4.890625 C 0.765625 -5.679688 0.878906 -6.382812 1.109375 -7 C 1.335938 -7.625 1.671875 -8.15625 2.109375 -8.59375 C 2.554688 -9.039062 3.082031 -9.378906 3.6875 -9.609375 C 4.300781 -9.847656 4.988281 -9.96875 5.75 -9.96875 C 6.769531 -9.96875 7.648438 -9.757812 8.390625 -9.34375 C 9.140625 -8.9375 9.71875 -8.351562 10.125 -7.59375 C 10.539062 -6.832031 10.75 -5.929688 10.75 -4.890625 C 10.75 -4.109375 10.628906 -3.40625 10.390625 -2.78125 C 10.160156 -2.15625 9.828125 -1.617188 9.390625 -1.171875 C 8.953125 -0.722656 8.425781 -0.378906 7.8125 -0.140625 C 7.195312 0.0859375 6.507812 0.203125 5.75 0.203125 Z M 5.75 -1.703125 C 6.25 -1.703125 6.679688 -1.820312 7.046875 -2.0625 C 7.421875 -2.300781 7.710938 -2.65625 7.921875 -3.125 C 8.128906 -3.601562 8.234375 -4.191406 8.234375 -4.890625 C 8.234375 -5.960938 8.003906 -6.757812 7.546875 -7.28125 C 7.097656 -7.8125 6.5 -8.078125 5.75 -8.078125 C 5.257812 -8.078125 4.828125 -7.957031 4.453125 -7.71875 C 4.078125 -7.488281 3.785156 -7.132812 3.578125 -6.65625 C 3.378906 -6.1875 3.28125 -5.597656 3.28125 -4.890625 C 3.28125 -3.835938 3.503906 -3.039062 3.953125 -2.5 C 4.410156 -1.96875 5.007812 -1.703125 5.75 -1.703125 Z M 5.75 -1.703125 "/></g></g></g><g fill="#3884b6" fill-opacity="1"><g transform="translate(67.164047, 53.65003)"><g><path d="M 5.8125 0.203125 C 4.789062 0.203125 3.898438 -0.00390625 3.140625 -0.421875 C 2.378906 -0.847656 1.789062 -1.445312 1.375 -2.21875 C 0.96875 -2.988281 0.765625 -3.894531 0.765625 -4.9375 C 0.765625 -5.71875 0.878906 -6.414062 1.109375 -7.03125 C 1.335938 -7.65625 1.671875 -8.179688 2.109375 -8.609375 C 2.554688 -9.046875 3.09375 -9.378906 3.71875 -9.609375 C 4.34375 -9.847656 5.039062 -9.96875 5.8125 -9.96875 C 6.25 -9.96875 6.722656 -9.90625 7.234375 -9.78125 C 7.753906 -9.664062 8.238281 -9.46875 8.6875 -9.1875 C 8.90625 -9.0625 9.046875 -8.90625 9.109375 -8.71875 C 9.179688 -8.53125 9.195312 -8.335938 9.15625 -8.140625 C 9.113281 -7.953125 9.03125 -7.785156 8.90625 -7.640625 C 8.78125 -7.503906 8.625 -7.414062 8.4375 -7.375 C 8.25 -7.34375 8.039062 -7.390625 7.8125 -7.515625 C 7.519531 -7.691406 7.21875 -7.820312 6.90625 -7.90625 C 6.601562 -7.988281 6.3125 -8.03125 6.03125 -8.03125 C 5.59375 -8.03125 5.207031 -7.957031 4.875 -7.8125 C 4.539062 -7.675781 4.253906 -7.476562 4.015625 -7.21875 C 3.785156 -6.957031 3.609375 -6.632812 3.484375 -6.25 C 3.367188 -5.863281 3.3125 -5.421875 3.3125 -4.921875 C 3.3125 -3.929688 3.546875 -3.148438 4.015625 -2.578125 C 4.492188 -2.015625 5.164062 -1.734375 6.03125 -1.734375 C 6.3125 -1.734375 6.601562 -1.773438 6.90625 -1.859375 C 7.207031 -1.941406 7.507812 -2.066406 7.8125 -2.234375 C 8.039062 -2.359375 8.242188 -2.398438 8.421875 -2.359375 C 8.597656 -2.316406 8.742188 -2.222656 8.859375 -2.078125 C 8.984375 -1.941406 9.0625 -1.773438 9.09375 -1.578125 C 9.125 -1.390625 9.097656 -1.203125 9.015625 -1.015625 C 8.941406 -0.828125 8.804688 -0.675781 8.609375 -0.5625 C 8.171875 -0.289062 7.703125 -0.0976562 7.203125 0.015625 C 6.710938 0.140625 6.25 0.203125 5.8125 0.203125 Z M 5.8125 0.203125 "/></g></g></g><g fill="#3a4e7e" fill-opacity="1"><g transform="translate(76.610344, 53.65003)"><g><path d="M 8.3125 0.203125 C 6.75 0.203125 5.429688 -0.0859375 4.359375 -0.671875 C 3.296875 -1.265625 2.484375 -2.097656 1.921875 -3.171875 C 1.359375 -4.253906 1.078125 -5.535156 1.078125 -7.015625 C 1.078125 -8.128906 1.238281 -9.132812 1.5625 -10.03125 C 1.894531 -10.925781 2.367188 -11.6875 2.984375 -12.3125 C 3.609375 -12.945312 4.363281 -13.429688 5.25 -13.765625 C 6.144531 -14.109375 7.160156 -14.28125 8.296875 -14.28125 C 9.035156 -14.28125 9.78125 -14.191406 10.53125 -14.015625 C 11.289062 -13.835938 12.003906 -13.535156 12.671875 -13.109375 C 12.898438 -12.960938 13.050781 -12.78125 13.125 -12.5625 C 13.195312 -12.351562 13.203125 -12.140625 13.140625 -11.921875 C 13.085938 -11.703125 12.988281 -11.507812 12.84375 -11.34375 C 12.695312 -11.1875 12.515625 -11.085938 12.296875 -11.046875 C 12.078125 -11.003906 11.835938 -11.0625 11.578125 -11.21875 C 11.066406 -11.507812 10.550781 -11.71875 10.03125 -11.84375 C 9.507812 -11.976562 8.929688 -12.046875 8.296875 -12.046875 C 7.304688 -12.046875 6.472656 -11.847656 5.796875 -11.453125 C 5.117188 -11.066406 4.609375 -10.5 4.265625 -9.75 C 3.921875 -9.007812 3.75 -8.097656 3.75 -7.015625 C 3.75 -5.378906 4.140625 -4.132812 4.921875 -3.28125 C 5.710938 -2.425781 6.882812 -2 8.4375 -2 C 8.96875 -2 9.503906 -2.050781 10.046875 -2.15625 C 10.597656 -2.257812 11.132812 -2.40625 11.65625 -2.59375 L 11.15625 -1.453125 L 11.15625 -5.71875 L 8.953125 -5.71875 C 8.617188 -5.71875 8.359375 -5.800781 8.171875 -5.96875 C 7.992188 -6.144531 7.90625 -6.378906 7.90625 -6.671875 C 7.90625 -6.984375 7.992188 -7.21875 8.171875 -7.375 C 8.359375 -7.53125 8.617188 -7.609375 8.953125 -7.609375 L 12.25 -7.609375 C 12.582031 -7.609375 12.835938 -7.519531 13.015625 -7.34375 C 13.203125 -7.164062 13.296875 -6.910156 13.296875 -6.578125 L 13.296875 -1.71875 C 13.296875 -1.425781 13.238281 -1.175781 13.125 -0.96875 C 13.007812 -0.769531 12.820312 -0.628906 12.5625 -0.546875 C 11.976562 -0.328125 11.304688 -0.144531 10.546875 0 C 9.785156 0.132812 9.039062 0.203125 8.3125 0.203125 Z M 8.3125 0.203125 "/></g></g></g><g fill="#3a4e7e" fill-opacity="1"><g transform="translate(91.307441, 53.65003)"><g><path d="M 6.109375 0.203125 C 5.003906 0.203125 4.050781 -0.00390625 3.25 -0.421875 C 2.457031 -0.835938 1.84375 -1.421875 1.40625 -2.171875 C 0.976562 -2.929688 0.765625 -3.832031 0.765625 -4.875 C 0.765625 -5.882812 0.972656 -6.769531 1.390625 -7.53125 C 1.804688 -8.289062 2.382812 -8.882812 3.125 -9.3125 C 3.863281 -9.75 4.707031 -9.96875 5.65625 -9.96875 C 6.34375 -9.96875 6.960938 -9.851562 7.515625 -9.625 C 8.078125 -9.40625 8.550781 -9.082031 8.9375 -8.65625 C 9.332031 -8.226562 9.632812 -7.707031 9.84375 -7.09375 C 10.050781 -6.488281 10.15625 -5.8125 10.15625 -5.0625 C 10.15625 -4.820312 10.070312 -4.632812 9.90625 -4.5 C 9.738281 -4.375 9.5 -4.3125 9.1875 -4.3125 L 2.78125 -4.3125 L 2.78125 -5.75 L 8.390625 -5.75 L 8.078125 -5.453125 C 8.078125 -6.066406 7.984375 -6.578125 7.796875 -6.984375 C 7.617188 -7.398438 7.359375 -7.71875 7.015625 -7.9375 C 6.679688 -8.164062 6.257812 -8.28125 5.75 -8.28125 C 5.195312 -8.28125 4.722656 -8.148438 4.328125 -7.890625 C 3.929688 -7.628906 3.628906 -7.257812 3.421875 -6.78125 C 3.222656 -6.3125 3.125 -5.75 3.125 -5.09375 L 3.125 -4.953125 C 3.125 -3.859375 3.378906 -3.039062 3.890625 -2.5 C 4.398438 -1.96875 5.15625 -1.703125 6.15625 -1.703125 C 6.5 -1.703125 6.882812 -1.742188 7.3125 -1.828125 C 7.75 -1.910156 8.160156 -2.0625 8.546875 -2.28125 C 8.828125 -2.4375 9.070312 -2.503906 9.28125 -2.484375 C 9.5 -2.460938 9.671875 -2.382812 9.796875 -2.25 C 9.929688 -2.125 10.007812 -1.960938 10.03125 -1.765625 C 10.0625 -1.578125 10.023438 -1.378906 9.921875 -1.171875 C 9.816406 -0.972656 9.644531 -0.800781 9.40625 -0.65625 C 8.945312 -0.363281 8.410156 -0.144531 7.796875 0 C 7.191406 0.132812 6.628906 0.203125 6.109375 0.203125 Z M 6.109375 0.203125 "/></g></g></g><g fill="#3a4e7e" fill-opacity="1"><g transform="translate(102.130576, 53.65003)"><g><path d="M 2.53125 0.15625 C 2.132812 0.15625 1.828125 0.046875 1.609375 -0.171875 C 1.398438 -0.390625 1.296875 -0.707031 1.296875 -1.125 L 1.296875 -8.671875 C 1.296875 -9.085938 1.398438 -9.398438 1.609375 -9.609375 C 1.828125 -9.828125 2.128906 -9.9375 2.515625 -9.9375 C 2.898438 -9.9375 3.195312 -9.828125 3.40625 -9.609375 C 3.625 -9.398438 3.734375 -9.085938 3.734375 -8.671875 L 3.734375 -7.3125 L 3.515625 -7.8125 C 3.804688 -8.519531 4.257812 -9.054688 4.875 -9.421875 C 5.5 -9.785156 6.207031 -9.96875 7 -9.96875 C 7.78125 -9.96875 8.421875 -9.820312 8.921875 -9.53125 C 9.429688 -9.238281 9.8125 -8.796875 10.0625 -8.203125 C 10.320312 -7.609375 10.453125 -6.859375 10.453125 -5.953125 L 10.453125 -1.125 C 10.453125 -0.707031 10.34375 -0.390625 10.125 -0.171875 C 9.914062 0.046875 9.613281 0.15625 9.21875 0.15625 C 8.8125 0.15625 8.5 0.046875 8.28125 -0.171875 C 8.0625 -0.390625 7.953125 -0.707031 7.953125 -1.125 L 7.953125 -5.828125 C 7.953125 -6.585938 7.804688 -7.140625 7.515625 -7.484375 C 7.234375 -7.835938 6.789062 -8.015625 6.1875 -8.015625 C 5.457031 -8.015625 4.875 -7.785156 4.4375 -7.328125 C 4.007812 -6.867188 3.796875 -6.257812 3.796875 -5.5 L 3.796875 -1.125 C 3.796875 -0.269531 3.375 0.15625 2.53125 0.15625 Z M 2.53125 0.15625 "/></g></g></g><path fill="#30457e" d="M 62.183594 5.015625 C 63.730469 5.726562 65.007812 6.605469 66.054688 7.960938 C 67.402344 9.980469 67.996094 12.105469 68.21875 14.519531 C 68.253906 15.320312 68.261719 16.117188 68.261719 16.917969 L 68.265625 17.59375 C 68.265625 18.0625 68.265625 18.53125 68.265625 19.003906 C 68.265625 19.710938 68.273438 20.421875 68.277344 21.128906 C 68.289062 24.570312 68.269531 27.863281 66.601562 30.960938 C 65.597656 32.464844 64.28125 33.554688 62.710938 34.421875 C 61.011719 35.1875 59.3125 35.457031 57.464844 35.378906 C 57.371094 34.898438 57.277344 34.421875 57.1875 33.941406 L 57.027344 33.132812 L 56.941406 32.472656 L 57.203125 32.210938 C 57.785156 32.085938 58.371094 31.972656 58.957031 31.863281 C 60.335938 31.570312 61.375 31.328125 62.449219 30.359375 C 63.457031 29.296875 64.0625 28.316406 64.546875 26.929688 C 64.746094 26.054688 64.921875 25.175781 65.070312 24.289062 L 64.339844 24.675781 C 64.015625 24.84375 63.691406 25.011719 63.367188 25.179688 L 62.886719 25.433594 C 61.011719 26.398438 59.234375 26.765625 57.136719 26.746094 L 56.550781 26.742188 C 54.273438 26.691406 52.285156 26.265625 50.285156 25.148438 C 48.761719 24.152344 47.753906 22.996094 46.90625 21.386719 C 45.621094 18.75 45.757812 15.972656 45.871094 13.101562 C 45.972656 11.757812 46.316406 10.667969 46.972656 9.503906 L 47.320312 8.863281 C 48.179688 7.421875 49.183594 6.371094 50.644531 5.542969 C 54.332031 3.898438 58.347656 3.699219 62.183594 5.015625 M 51.957031 8.449219 C 50.871094 9.238281 50.117188 10.175781 49.496094 11.367188 C 48.78125 13.1875 48.71875 15.175781 48.867188 17.109375 C 49.121094 18.6875 49.652344 20.125 50.644531 21.386719 C 51.832031 22.414062 53.066406 23.09375 54.578125 23.496094 C 56.613281 23.722656 58.878906 23.785156 60.808594 23.050781 C 62.21875 22.355469 63.183594 21.578125 64.085938 20.261719 C 64.976562 18.527344 65.179688 16.671875 65.136719 14.742188 C 64.992188 13.082031 64.609375 11.480469 63.710938 10.066406 C 62.941406 9.097656 61.984375 8.4375 60.875 7.921875 C 58.03125 6.945312 54.617188 6.933594 51.957031 8.449219 M 112.019531 5.808594 C 113.535156 6.585938 114.652344 7.527344 115.617188 8.9375 C 116.671875 10.71875 117.253906 12.371094 117.316406 14.449219 C 117.324219 14.929688 117.328125 15.410156 117.332031 15.890625 L 117.347656 16.605469 C 117.359375 18.621094 116.945312 20.316406 116.140625 22.15625 C 115.195312 23.773438 114.148438 24.902344 112.542969 25.875 C 110.476562 26.890625 108.625 27.242188 106.347656 27.242188 L 105.757812 27.253906 C 104.128906 27.257812 102.59375 26.996094 101.003906 26.664062 L 101.171875 27.378906 C 101.378906 28.253906 101.582031 29.128906 101.789062 30.003906 C 101.875 30.382812 101.964844 30.761719 102.054688 31.140625 C 102.183594 31.6875 102.3125 32.230469 102.4375 32.777344 L 102.671875 33.769531 C 102.839844 34.585938 102.839844 34.585938 102.839844 35.378906 C 102.46875 35.347656 102.097656 35.3125 101.722656 35.277344 C 101.519531 35.261719 101.3125 35.242188 101.097656 35.222656 C 100.414062 35.101562 100.007812 34.972656 99.429688 34.585938 C 99.160156 33.980469 99.160156 33.980469 98.949219 33.15625 L 98.6875 32.144531 L 98.378906 30.890625 L 97.976562 29.292969 C 97.59375 27.742188 97.214844 26.191406 96.84375 24.636719 C 96.6875 23.988281 96.53125 23.339844 96.371094 22.6875 C 94.550781 15.304688 94.550781 15.304688 94.972656 12.144531 C 95.539062 10.292969 96.664062 8.859375 97.980469 7.460938 C 99.3125 6.257812 100.867188 5.414062 102.59375 4.917969 C 105.746094 4.371094 109.078125 4.496094 112.019531 5.808594 M 100.738281 9.324219 C 99.792969 10.054688 99.035156 10.890625 98.554688 11.992188 C 97.949219 14.355469 98.28125 16.855469 98.839844 19.191406 L 98.964844 19.71875 C 99.265625 20.839844 99.664062 21.617188 100.480469 22.441406 C 101.167969 22.863281 101.167969 22.863281 101.921875 23.167969 L 102.667969 23.492188 C 104.570312 24.226562 106.597656 24.207031 108.609375 24.023438 C 109.828125 23.761719 110.765625 23.320312 111.761719 22.570312 C 112.949219 21.488281 113.609375 20.265625 114.117188 18.746094 C 114.585938 16.863281 114.519531 14.863281 114.050781 12.988281 C 113.503906 11.371094 112.53125 10.179688 111.269531 9.0625 C 110.082031 8.320312 108.863281 7.890625 107.464844 7.804688 C 107.070312 7.800781 106.675781 7.800781 106.28125 7.804688 L 105.65625 7.8125 C 103.757812 7.863281 102.328125 8.273438 100.738281 9.324219 M 37.53125 5.015625 C 39.136719 5.761719 40.46875 6.707031 41.585938 8.09375 C 42.648438 9.722656 43.328125 11.535156 43.5625 13.464844 C 43.699219 15.964844 43.664062 18.226562 42.777344 20.59375 L 42.5625 21.164062 C 41.914062 22.671875 40.894531 23.792969 39.628906 24.816406 C 37.714844 26.042969 35.863281 26.597656 33.617188 26.722656 C 31.121094 26.796875 28.714844 26.691406 26.425781 25.574219 C 24.722656 24.5625 23.472656 23.203125 22.414062 21.535156 C 21.261719 19.347656 21.113281 16.929688 21.195312 14.496094 C 21.34375 12.472656 21.789062 10.46875 22.769531 8.679688 C 23.753906 7.230469 24.949219 6.140625 26.480469 5.3125 C 29.894531 3.765625 34.027344 3.703125 37.53125 5.015625 M 27.035156 8.796875 C 26.007812 9.59375 25.410156 10.453125 24.871094 11.636719 C 24.09375 13.710938 24.203125 16.257812 24.527344 18.4375 C 24.902344 19.746094 25.601562 20.734375 26.523438 21.722656 C 27.441406 22.53125 28.441406 22.996094 29.589844 23.386719 C 31.554688 23.75 34.042969 23.773438 35.972656 23.214844 C 37.222656 22.695312 38.214844 21.875 39.105469 20.855469 C 40.003906 19.480469 40.363281 18.171875 40.480469 16.53125 C 40.519531 14.367188 40.394531 12.511719 39.367188 10.558594 C 38.664062 9.441406 37.890625 8.707031 36.726562 8.085938 C 34.84375 7.191406 32.734375 7.25 30.695312 7.34375 C 29.300781 7.476562 28.1875 8.039062 27.035156 8.796875 M 85.789062 5.015625 C 87.246094 5.714844 88.605469 6.53125 89.585938 7.84375 C 91.425781 10.621094 92.339844 13.621094 93.167969 16.8125 C 93.28125 17.238281 93.394531 17.660156 93.503906 18.082031 C 93.726562 18.902344 93.941406 19.722656 94.15625 20.546875 C 94.398438 21.472656 94.648438 22.402344 94.90625 23.328125 L 95.265625 24.652344 L 95.425781 25.226562 C 95.699219 26.257812 95.808594 27.183594 95.757812 28.25 C 95.335938 28.195312 94.914062 28.132812 94.496094 28.066406 L 93.785156 27.964844 L 93.136719 27.722656 C 92.21875 26.523438 91.9375 25.085938 91.5625 23.652344 L 91.34375 22.839844 C 91.113281 21.988281 90.886719 21.132812 90.660156 20.28125 C 90.433594 19.429688 90.207031 18.582031 89.976562 17.730469 C 89.835938 17.207031 89.695312 16.675781 89.558594 16.148438 C 88.910156 13.75 88.195312 11.421875 86.582031 9.5 C 85.625 8.554688 84.730469 8.003906 83.429688 7.65625 C 81.445312 7.386719 79.375 7.398438 77.480469 8.101562 C 76.261719 8.699219 75.261719 9.335938 74.464844 10.476562 C 72.71875 13.574219 73.101562 17.597656 73.054688 21.039062 C 73.042969 21.804688 73.03125 22.574219 73.015625 23.339844 C 73.007812 23.8125 73 24.289062 72.996094 24.761719 C 72.984375 25.308594 72.964844 25.855469 72.9375 26.402344 L 72.675781 26.664062 C 70.703125 26.726562 70.703125 26.726562 70.054688 26.402344 C 70.035156 24.65625 70.019531 22.90625 70.011719 21.160156 C 70.007812 20.566406 70 19.976562 69.996094 19.382812 C 69.984375 18.523438 69.980469 17.667969 69.976562 16.808594 C 69.972656 16.550781 69.96875 16.289062 69.964844 16.019531 C 69.964844 13.667969 70.367188 11.425781 71.414062 9.304688 C 72.328125 7.800781 73.421875 6.558594 74.945312 5.664062 C 78.390625 4.007812 82.175781 3.578125 85.789062 5.015625 M 0.550781 1.054688 C 0.984375 1.03125 1.421875 1.019531 1.859375 1.023438 L 2.582031 1.019531 L 3.171875 1.054688 L 3.433594 1.320312 C 3.460938 1.882812 3.472656 2.449219 3.476562 3.011719 L 3.480469 3.550781 C 3.484375 3.933594 3.484375 4.320312 3.488281 4.707031 C 3.488281 5.316406 3.496094 5.929688 3.5 6.539062 C 3.515625 8.28125 3.53125 10.019531 3.539062 11.761719 C 3.546875 12.824219 3.554688 13.886719 3.566406 14.949219 C 3.570312 15.355469 3.570312 15.757812 3.574219 16.164062 C 3.523438 19.148438 3.523438 19.148438 4.484375 21.914062 C 5.105469 22.625 5.105469 22.625 6.058594 22.96875 C 7.097656 23.113281 8.125 23.117188 9.175781 23.113281 C 9.476562 23.113281 9.773438 23.117188 10.082031 23.121094 C 11.035156 23.128906 11.988281 23.132812 12.941406 23.132812 C 13.898438 23.136719 14.855469 23.144531 15.8125 23.152344 C 16.40625 23.160156 17.003906 23.160156 17.597656 23.160156 L 18.410156 23.164062 C 18.765625 23.167969 18.765625 23.167969 19.125 23.167969 L 19.695312 23.234375 L 20.21875 23.761719 C 20.222656 24.324219 20.222656 24.324219 20.136719 24.964844 L 20.058594 25.609375 L 19.957031 26.136719 L 19.695312 26.402344 C 19.25 26.429688 18.804688 26.449219 18.359375 26.453125 L 17.492188 26.464844 C 16.175781 26.476562 14.859375 26.488281 13.542969 26.492188 C 12.851562 26.496094 12.160156 26.503906 11.464844 26.515625 C 10.46875 26.53125 9.46875 26.535156 8.46875 26.539062 L 7.539062 26.558594 C 5.757812 26.554688 4.480469 26.304688 2.914062 25.4375 C 2.0625 24.863281 1.628906 24.378906 1.074219 23.496094 C 0.078125 21.238281 0.179688 18.988281 0.199219 16.566406 C 0.203125 16.125 0.203125 15.6875 0.203125 15.246094 C 0.203125 14.328125 0.207031 13.414062 0.214844 12.496094 C 0.222656 11.320312 0.222656 10.140625 0.222656 8.964844 C 0.226562 8.058594 0.226562 7.152344 0.230469 6.246094 L 0.234375 4.941406 C 0.238281 4.339844 0.238281 3.734375 0.246094 3.128906 L 0.25 2.085938 L 0.285156 1.320312 Z M 0.550781 1.054688 " fill-opacity="1" fill-rule="nonzero"/><path fill="#30457e" d="M 81.300781 14.453125 C 82.117188 14.519531 82.117188 14.519531 82.726562 14.816406 C 83.167969 15.3125 83.167969 15.3125 83.414062 16.070312 C 83.429688 16.898438 83.429688 16.898438 83.085938 17.640625 C 82.644531 18.214844 82.644531 18.214844 82.117188 18.480469 C 81.21875 18.546875 81.21875 18.546875 80.28125 18.480469 C 79.792969 18.183594 79.792969 18.183594 79.496094 17.6875 C 79.265625 16.929688 79.265625 16.929688 79.234375 16.105469 C 79.578125 15.363281 79.578125 15.363281 80.019531 14.785156 C 80.546875 14.519531 80.546875 14.519531 81.300781 14.453125 " fill-opacity="1" fill-rule="nonzero"/></svg>