<svg xmlns="http://www.w3.org/2000/svg" xmlns:xlink="http://www.w3.org/1999/xlink" width="160" zoomAndPan="magnify" viewBox="0 0 120 60" height="80" preserveAspectRatio="xMidYMid meet" version="1.0"><defs><g/><clipPath id="b853a93b96"><path d="M 4 5 L 115 5 L 115 38.628906 L 4 38.628906 Z M 4 5 " clip-rule="nonzero"/></clipPath></defs><g fill="#3884b6" fill-opacity="1"><g transform="translate(60.035154, 51.658586)"><g><path d="M 8.8125 -9.984375 C 8.8125 -10.171875 8.703125 -10.265625 8.53125 -10.265625 L 6.9375 -10.265625 C 6.765625 -10.265625 6.671875 -10.171875 6.671875 -9.984375 L 6.671875 -6.75 C 6.03125 -7.265625 5.1875 -7.578125 4.3125 -7.578125 C 2.171875 -7.578125 0.609375 -5.84375 0.609375 -3.703125 C 0.609375 -1.578125 2.171875 0.15625 4.3125 0.15625 C 5.390625 0.15625 6.328125 -0.265625 6.96875 -1 L 7.21875 -0.234375 C 7.265625 -0.078125 7.359375 0 7.515625 0 L 8.546875 0 C 8.71875 0 8.828125 -0.09375 8.828125 -0.28125 Z M 4.765625 -1.6875 C 3.640625 -1.6875 2.734375 -2.59375 2.734375 -3.703125 C 2.734375 -4.828125 3.640625 -5.734375 4.765625 -5.734375 C 5.875 -5.734375 6.78125 -4.828125 6.78125 -3.703125 C 6.78125 -2.59375 5.875 -1.6875 4.765625 -1.6875 Z M 4.765625 -1.6875 "/></g></g><g transform="translate(69.78616, 51.658586)"><g><path d="M 4.609375 0.15625 C 6.953125 0.15625 8.65625 -1.4375 8.65625 -3.703125 C 8.65625 -5.96875 6.953125 -7.578125 4.609375 -7.578125 C 2.296875 -7.578125 0.59375 -5.96875 0.59375 -3.703125 C 0.59375 -1.4375 2.296875 0.15625 4.609375 0.15625 Z M 4.609375 -1.6875 C 3.46875 -1.6875 2.71875 -2.5625 2.71875 -3.703125 C 2.71875 -4.859375 3.46875 -5.734375 4.609375 -5.734375 C 5.78125 -5.734375 6.53125 -4.859375 6.53125 -3.703125 C 6.53125 -2.5625 5.78125 -1.6875 4.609375 -1.6875 Z M 4.609375 -1.6875 "/></g></g><g transform="translate(79.035916, 51.658586)"><g><path d="M 4.671875 0.15625 C 5.84375 0.15625 6.90625 -0.28125 7.609375 -1.015625 C 7.71875 -1.140625 7.703125 -1.25 7.5625 -1.390625 L 6.5 -2.40625 C 6.359375 -2.515625 6.25 -2.484375 6.109375 -2.359375 C 5.765625 -1.9375 5.25 -1.6875 4.671875 -1.6875 C 3.515625 -1.6875 2.6875 -2.5625 2.6875 -3.703125 C 2.6875 -4.859375 3.515625 -5.734375 4.671875 -5.734375 C 5.265625 -5.734375 5.765625 -5.46875 6.109375 -5.0625 C 6.25 -4.921875 6.375 -4.90625 6.5 -5.015625 L 7.5625 -6.03125 C 7.6875 -6.140625 7.71875 -6.296875 7.59375 -6.421875 C 6.875 -7.140625 5.84375 -7.578125 4.671875 -7.578125 C 2.328125 -7.578125 0.59375 -5.96875 0.59375 -3.703125 C 0.59375 -1.4375 2.328125 0.15625 4.671875 0.15625 Z M 4.671875 0.15625 "/></g></g></g><g fill="#27447e" fill-opacity="1"><g transform="translate(87.222653, 51.658586)"><g><path d="M 6.09375 0.265625 C 7.953125 0.265625 9.484375 -0.4375 10.4375 -1.640625 C 10.515625 -1.734375 10.546875 -1.828125 10.546875 -1.953125 L 10.546875 -5.09375 C 10.546875 -5.28125 10.453125 -5.375 10.265625 -5.375 L 6.390625 -5.375 C 6.21875 -5.375 6.125 -5.28125 6.125 -5.09375 L 6.125 -3.734375 C 6.125 -3.5625 6.21875 -3.46875 6.390625 -3.46875 L 8.40625 -3.46875 L 8.40625 -2.71875 C 7.84375 -2.125 7.046875 -1.765625 6.09375 -1.765625 C 4.25 -1.765625 2.9375 -3.078125 2.9375 -5.140625 C 2.9375 -7.125 4.25 -8.390625 6.09375 -8.390625 C 7.078125 -8.390625 7.90625 -8.015625 8.484375 -7.390625 C 8.59375 -7.265625 8.71875 -7.234375 8.859375 -7.34375 L 10.328125 -8.34375 C 10.46875 -8.453125 10.5 -8.578125 10.375 -8.703125 C 9.390625 -9.84375 7.90625 -10.53125 6.09375 -10.53125 C 2.859375 -10.53125 0.59375 -8.390625 0.59375 -5.140625 C 0.59375 -1.875 2.859375 0.265625 6.09375 0.265625 Z M 6.09375 0.265625 "/></g></g><g transform="translate(98.504146, 51.658586)"><g><path d="M 4.34375 -7.578125 C 2.1875 -7.578125 0.609375 -6.078125 0.609375 -3.703125 C 0.609375 -1.296875 2.34375 0.15625 4.453125 0.15625 C 5.484375 0.15625 6.546875 -0.203125 7.4375 -0.921875 C 7.609375 -1.0625 7.640625 -1.203125 7.515625 -1.3125 L 6.71875 -2.328125 C 6.609375 -2.453125 6.5 -2.453125 6.34375 -2.34375 C 5.78125 -1.890625 5.125 -1.65625 4.515625 -1.65625 C 3.578125 -1.65625 2.71875 -2.234375 2.671875 -3.390625 L 7.65625 -3.390625 C 7.890625 -3.390625 7.96875 -3.484375 7.96875 -3.734375 C 7.96875 -6.078125 6.5 -7.578125 4.34375 -7.578125 Z M 4.390625 -5.90625 C 5 -5.90625 5.640625 -5.609375 5.8125 -4.765625 L 2.796875 -4.765625 C 3.03125 -5.625 3.796875 -5.90625 4.390625 -5.90625 Z M 4.390625 -5.90625 "/></g></g><g transform="translate(107.058833, 51.658586)"><g><path d="M 5.359375 -7.578125 C 4.5 -7.578125 3.5625 -7.265625 2.75 -6.5 L 2.546875 -7.1875 C 2.484375 -7.34375 2.390625 -7.421875 2.234375 -7.421875 L 1.203125 -7.421875 C 1.03125 -7.421875 0.921875 -7.328125 0.921875 -7.140625 L 0.921875 -0.28125 C 0.921875 -0.09375 1.03125 0 1.203125 0 L 2.796875 0 C 2.96875 0 3.0625 -0.09375 3.0625 -0.28125 L 3.0625 -4.140625 C 3.0625 -5.09375 3.703125 -5.765625 4.609375 -5.765625 C 5.515625 -5.765625 6.015625 -5.0625 6.015625 -4.15625 L 6.015625 -0.28125 C 6.015625 -0.09375 6.109375 0 6.28125 0 L 7.859375 0 C 8.046875 0 8.140625 -0.09375 8.140625 -0.28125 L 8.140625 -4.53125 C 8.140625 -5.859375 7.578125 -7.578125 5.359375 -7.578125 Z M 5.359375 -7.578125 "/></g></g></g><g clip-path="url(#b853a93b96)"><path fill="#27447e" d="M 62.53125 9.582031 C 63.988281 10.246094 65.191406 11.070312 66.179688 12.339844 C 67.449219 14.230469 68.011719 16.226562 68.21875 18.488281 C 68.253906 19.234375 68.261719 19.980469 68.261719 20.730469 L 68.265625 21.363281 C 68.265625 21.804688 68.265625 22.246094 68.265625 22.6875 C 68.265625 23.351562 68.269531 24.015625 68.277344 24.679688 C 68.285156 27.902344 68.269531 30.988281 66.695312 33.890625 C 65.75 35.300781 64.507812 36.324219 63.023438 37.132812 C 61.425781 37.851562 59.820312 38.101562 58.078125 38.027344 C 57.988281 37.582031 57.902344 37.132812 57.816406 36.683594 L 57.667969 35.925781 L 57.582031 35.308594 L 57.832031 35.0625 C 58.378906 34.945312 58.933594 34.839844 59.484375 34.734375 C 60.785156 34.460938 61.769531 34.234375 62.777344 33.328125 C 63.730469 32.332031 64.300781 31.414062 64.757812 30.113281 C 64.945312 29.292969 65.113281 28.46875 65.25 27.640625 L 64.5625 28 C 64.257812 28.160156 63.949219 28.316406 63.644531 28.472656 L 63.191406 28.710938 C 61.425781 29.613281 59.746094 29.957031 57.769531 29.941406 L 57.214844 29.9375 C 55.070312 29.890625 53.195312 29.492188 51.304688 28.441406 C 49.871094 27.507812 48.917969 26.425781 48.121094 24.917969 C 46.90625 22.449219 47.039062 19.84375 47.144531 17.15625 C 47.238281 15.898438 47.5625 14.878906 48.183594 13.785156 L 48.507812 13.183594 C 49.320312 11.832031 50.269531 10.851562 51.644531 10.074219 C 55.125 8.53125 58.914062 8.34375 62.53125 9.582031 M 52.882812 12.796875 C 51.859375 13.539062 51.148438 14.414062 50.5625 15.535156 C 49.890625 17.238281 49.828125 19.101562 49.96875 20.910156 C 50.207031 22.390625 50.710938 23.738281 51.644531 24.917969 C 52.765625 25.882812 53.929688 26.519531 55.355469 26.898438 C 57.273438 27.109375 59.410156 27.164062 61.230469 26.480469 C 62.558594 25.828125 63.46875 25.097656 64.324219 23.867188 C 65.164062 22.242188 65.355469 20.503906 65.3125 18.691406 C 65.175781 17.136719 64.816406 15.636719 63.96875 14.3125 C 63.242188 13.40625 62.34375 12.785156 61.292969 12.300781 C 58.613281 11.390625 55.390625 11.378906 52.882812 12.796875 M 109.53125 10.324219 C 110.960938 11.050781 112.015625 11.933594 112.925781 13.253906 C 113.921875 14.925781 114.46875 16.472656 114.53125 18.417969 C 114.535156 18.871094 114.539062 19.320312 114.542969 19.769531 L 114.558594 20.441406 C 114.566406 22.328125 114.179688 23.917969 113.417969 25.640625 C 112.527344 27.15625 111.539062 28.210938 110.027344 29.125 C 108.078125 30.074219 106.332031 30.40625 104.183594 30.40625 L 103.625 30.417969 C 102.089844 30.421875 100.640625 30.175781 99.140625 29.867188 L 99.300781 30.535156 C 99.496094 31.355469 99.6875 32.175781 99.882812 32.996094 C 99.964844 33.351562 100.050781 33.707031 100.132812 34.058594 C 100.253906 34.570312 100.375 35.082031 100.496094 35.589844 L 100.714844 36.519531 C 100.875 37.285156 100.875 37.285156 100.875 38.027344 C 100.523438 38 100.171875 37.96875 99.820312 37.9375 C 99.628906 37.917969 99.433594 37.902344 99.230469 37.882812 C 98.585938 37.769531 98.203125 37.648438 97.65625 37.285156 C 97.402344 36.71875 97.402344 36.71875 97.207031 35.949219 L 96.957031 35 L 96.667969 33.824219 L 96.289062 32.328125 C 95.925781 30.875 95.566406 29.421875 95.21875 27.96875 C 95.070312 27.355469 94.921875 26.75 94.773438 26.140625 C 93.054688 19.222656 93.054688 19.222656 93.453125 16.261719 C 93.988281 14.523438 95.050781 13.183594 96.292969 11.875 C 97.550781 10.742188 99.015625 9.953125 100.640625 9.488281 C 103.617188 8.976562 106.757812 9.09375 109.53125 10.324219 M 98.890625 13.617188 C 98 14.304688 97.285156 15.082031 96.832031 16.117188 C 96.261719 18.332031 96.574219 20.671875 97.101562 22.863281 L 97.21875 23.355469 C 97.503906 24.410156 97.878906 25.136719 98.648438 25.90625 C 99.296875 26.304688 99.296875 26.304688 100.007812 26.589844 L 100.710938 26.894531 C 102.503906 27.578125 104.417969 27.5625 106.316406 27.390625 C 107.464844 27.144531 108.351562 26.730469 109.289062 26.03125 C 110.410156 25.015625 111.035156 23.867188 111.511719 22.445312 C 111.949219 20.683594 111.890625 18.808594 111.449219 17.050781 C 110.929688 15.535156 110.015625 14.417969 108.824219 13.371094 C 107.703125 12.675781 106.554688 12.273438 105.234375 12.195312 C 104.863281 12.1875 104.492188 12.1875 104.121094 12.195312 L 103.527344 12.199219 C 101.742188 12.25 100.390625 12.632812 98.890625 13.617188 M 39.277344 9.582031 C 40.792969 10.28125 42.046875 11.167969 43.101562 12.464844 C 44.101562 13.992188 44.742188 15.6875 44.964844 17.496094 C 45.09375 19.839844 45.0625 21.960938 44.222656 24.175781 L 44.023438 24.710938 C 43.410156 26.125 42.449219 27.175781 41.257812 28.132812 C 39.453125 29.28125 37.707031 29.800781 35.585938 29.917969 C 33.234375 29.988281 30.960938 29.890625 28.804688 28.84375 C 27.199219 27.894531 26.015625 26.621094 25.019531 25.058594 C 23.929688 23.007812 23.792969 20.742188 23.867188 18.464844 C 24.007812 16.566406 24.429688 14.6875 25.355469 13.011719 C 26.28125 11.65625 27.410156 10.632812 28.855469 9.859375 C 32.078125 8.40625 35.972656 8.351562 39.277344 9.582031 M 29.378906 13.125 C 28.40625 13.871094 27.847656 14.675781 27.335938 15.78125 C 26.601562 17.726562 26.707031 20.117188 27.015625 22.15625 C 27.363281 23.382812 28.027344 24.308594 28.894531 25.234375 C 29.761719 25.992188 30.707031 26.429688 31.789062 26.792969 C 33.640625 27.132812 35.988281 27.15625 37.808594 26.632812 C 38.988281 26.144531 39.921875 25.375 40.761719 24.421875 C 41.609375 23.132812 41.949219 21.90625 42.058594 20.371094 C 42.097656 18.34375 41.976562 16.601562 41.007812 14.777344 C 40.34375 13.726562 39.617188 13.039062 38.519531 12.457031 C 36.742188 11.621094 34.753906 11.671875 32.828125 11.761719 C 31.511719 11.886719 30.464844 12.410156 29.378906 13.125 M 84.792969 9.582031 C 86.164062 10.238281 87.449219 11 88.375 12.230469 C 90.109375 14.832031 90.972656 17.644531 91.75 20.636719 C 91.859375 21.03125 91.964844 21.425781 92.070312 21.824219 C 92.277344 22.589844 92.480469 23.359375 92.683594 24.132812 C 92.914062 25.003906 93.148438 25.871094 93.390625 26.738281 L 93.730469 27.980469 L 93.878906 28.515625 C 94.136719 29.484375 94.242188 30.351562 94.195312 31.351562 C 93.796875 31.300781 93.398438 31.242188 93.003906 31.179688 L 92.335938 31.085938 L 91.71875 30.855469 C 90.855469 29.734375 90.59375 28.386719 90.238281 27.042969 L 90.03125 26.28125 C 89.816406 25.484375 89.597656 24.683594 89.386719 23.882812 C 89.171875 23.085938 88.957031 22.289062 88.742188 21.496094 C 88.609375 21 88.476562 20.507812 88.347656 20.011719 C 87.738281 17.765625 87.0625 15.585938 85.539062 13.78125 C 84.636719 12.894531 83.796875 12.378906 82.566406 12.054688 C 80.695312 11.804688 78.742188 11.8125 76.957031 12.472656 C 75.804688 13.03125 74.863281 13.628906 74.113281 14.695312 C 72.464844 17.597656 72.824219 21.367188 72.78125 24.59375 C 72.769531 25.3125 72.757812 26.03125 72.746094 26.75 C 72.738281 27.195312 72.730469 27.636719 72.726562 28.082031 C 72.71875 28.59375 72.695312 29.105469 72.671875 29.617188 L 72.425781 29.867188 C 70.566406 29.925781 70.566406 29.925781 69.953125 29.617188 C 69.933594 27.980469 69.917969 26.34375 69.910156 24.707031 C 69.90625 24.152344 69.902344 23.597656 69.894531 23.042969 C 69.886719 22.238281 69.882812 21.433594 69.878906 20.632812 C 69.875 20.386719 69.871094 20.144531 69.867188 19.890625 C 69.867188 17.6875 70.246094 15.585938 71.234375 13.601562 C 72.097656 12.191406 73.125 11.027344 74.5625 10.1875 C 77.816406 8.632812 81.382812 8.234375 84.792969 9.582031 M 4.398438 5.871094 C 4.808594 5.847656 5.222656 5.835938 5.632812 5.839844 L 6.3125 5.835938 L 6.871094 5.871094 L 7.117188 6.117188 C 7.144531 6.644531 7.15625 7.175781 7.15625 7.703125 L 7.160156 8.207031 C 7.164062 8.566406 7.164062 8.929688 7.167969 9.289062 C 7.171875 9.863281 7.175781 10.4375 7.179688 11.007812 C 7.195312 12.640625 7.210938 14.269531 7.21875 15.898438 C 7.222656 16.894531 7.230469 17.894531 7.242188 18.890625 C 7.246094 19.269531 7.25 19.648438 7.25 20.023438 C 7.203125 22.824219 7.203125 22.824219 8.109375 25.414062 C 8.691406 26.078125 8.691406 26.078125 9.59375 26.402344 C 10.574219 26.539062 11.542969 26.539062 12.535156 26.535156 C 12.816406 26.539062 13.097656 26.542969 13.390625 26.542969 C 14.289062 26.554688 15.1875 26.554688 16.085938 26.558594 C 16.988281 26.5625 17.890625 26.566406 18.792969 26.574219 C 19.355469 26.578125 19.914062 26.582031 20.476562 26.582031 L 21.242188 26.585938 C 21.578125 26.585938 21.578125 26.585938 21.917969 26.585938 L 22.457031 26.648438 L 22.949219 27.144531 C 22.953125 27.671875 22.953125 27.671875 22.875 28.273438 L 22.796875 28.875 L 22.703125 29.371094 L 22.457031 29.617188 C 22.035156 29.644531 21.617188 29.664062 21.195312 29.667969 L 20.378906 29.679688 C 19.136719 29.6875 17.894531 29.699219 16.652344 29.703125 C 16 29.710938 15.347656 29.714844 14.695312 29.726562 C 13.75 29.738281 12.808594 29.746094 11.867188 29.746094 L 10.988281 29.765625 C 9.308594 29.761719 8.101562 29.527344 6.625 28.714844 C 5.824219 28.179688 5.414062 27.722656 4.890625 26.898438 C 3.953125 24.78125 4.050781 22.671875 4.070312 20.402344 C 4.070312 19.992188 4.070312 19.578125 4.070312 19.167969 C 4.070312 18.308594 4.074219 17.449219 4.078125 16.589844 C 4.085938 15.488281 4.089844 14.382812 4.089844 13.28125 C 4.09375 12.429688 4.09375 11.582031 4.097656 10.734375 L 4.101562 9.511719 C 4.101562 8.945312 4.105469 8.378906 4.109375 7.8125 L 4.113281 6.835938 L 4.148438 6.117188 Z M 4.398438 5.871094 " fill-opacity="1" fill-rule="nonzero"/></g><path fill="#27447e" d="M 80.558594 18.425781 C 81.332031 18.488281 81.332031 18.488281 81.902344 18.765625 C 82.320312 19.230469 82.320312 19.230469 82.550781 19.941406 C 82.566406 20.710938 82.566406 20.710938 82.242188 21.410156 C 81.824219 21.949219 81.824219 21.949219 81.332031 22.195312 C 80.480469 22.257812 80.480469 22.257812 79.597656 22.195312 C 79.136719 21.917969 79.136719 21.917969 78.855469 21.453125 C 78.640625 20.742188 78.640625 20.742188 78.609375 19.96875 C 78.933594 19.273438 78.933594 19.273438 79.351562 18.734375 C 79.847656 18.488281 79.847656 18.488281 80.558594 18.425781 " fill-opacity="1" fill-rule="nonzero"/></svg>